<?xml version="1.0"?>
<svg xmlns="http://www.w3.org/2000/svg" xmlns:xlink="http://www.w3.org/1999/xlink" version="1.1" id="Capa_1" x="0px" y="0px" viewBox="0 0 464.124 464.124" style="enable-background:new 0 0 464.124 464.124;" xml:space="preserve" width="512px" height="512px"><g><g>
	<g>
		<path d="M240.009,104.062c-70.692,0-128,57.308-128,128c0.084,70.658,57.342,127.916,128,128c70.692,0,128-57.308,128-128    S310.701,104.062,240.009,104.062z M240.009,344.062c-61.856,0-112-50.144-112-112c0.066-61.828,50.172-111.934,112-112    c61.856,0,112,50.144,112,112S301.865,344.062,240.009,344.062z" data-original="#000000" class="active-path" data-old_color="#000000" fill="#FF2121"/>
	</g>
</g><g>
	<g>
		<path d="M312.009,208.062c-13.255,0-24,10.745-24,24s10.745,24,24,24s24-10.745,24-24S325.264,208.062,312.009,208.062z     M312.009,240.062c-4.418,0-8-3.582-8-8s3.582-8,8-8s8,3.582,8,8S316.427,240.062,312.009,240.062z" data-original="#000000" class="active-path" data-old_color="#000000" fill="#FF2121"/>
	</g>
</g><g>
	<g>
		<path d="M168.009,208.062c-13.255,0-24,10.745-24,24s10.745,24,24,24s24-10.745,24-24S181.264,208.062,168.009,208.062z     M168.009,240.062c-4.418,0-8-3.582-8-8s3.582-8,8-8s8,3.582,8,8S172.427,240.062,168.009,240.062z" data-original="#000000" class="active-path" data-old_color="#000000" fill="#FF2121"/>
	</g>
</g><g>
	<g>
		<path d="M240.009,280.062c-13.255,0-24,10.745-24,24s10.745,24,24,24s24-10.745,24-24S253.264,280.062,240.009,280.062z     M240.009,312.062c-4.418,0-8-3.582-8-8s3.582-8,8-8s8,3.582,8,8S244.427,312.062,240.009,312.062z" data-original="#000000" class="active-path" data-old_color="#000000" fill="#FF2121"/>
	</g>
</g><g>
	<g>
		<path d="M240.009,136.062c-13.255,0-24,10.745-24,24s10.745,24,24,24s24-10.745,24-24S253.264,136.062,240.009,136.062z     M240.009,168.062c-4.418,0-8-3.582-8-8s3.582-8,8-8s8,3.582,8,8S244.427,168.062,240.009,168.062z" data-original="#000000" class="active-path" data-old_color="#000000" fill="#FF2121"/>
	</g>
</g><g>
	<g>
		<path d="M394.007,69.286C352.388,29.942,297.281,8.033,240.009,8.062C182.777,7.922,127.694,29.85,86.217,69.286    c-9.64-4.478-21.081-1.997-28,6.072c-77.622,90.048-77.622,223.352,0,313.4c4.355,5.028,10.601,8.024,17.248,8.272h0.88    c3.417-0.023,6.789-0.77,9.896-2.192c89.899,84.987,231.672,81.006,316.659-8.893S483.906,154.273,394.007,69.286z     M82.081,378.718c-1.583,1.609-3.768,2.479-6.024,2.4c-2.206-0.063-4.283-1.053-5.72-2.728c-1.64-1.896-3.064-3.936-4.632-5.88    l15.912-15.92l-11.312-11.312l-14.336,14.264c-53.279-76.633-53.279-178.319,0-254.952h0.04l14.336,14.336l11.264-11.312    L65.697,91.702c1.6-1.952,3-4,4.64-5.896c1.436-1.67,3.51-2.658,5.712-2.72h0.312c2.149,0,4.208,0.865,5.712,2.4l34.048,34.048    c2.905,3.001,3.054,7.718,0.344,10.896c-48.61,59.066-48.61,144.278,0,203.344c2.716,3.175,2.571,7.895-0.336,10.896    L82.081,378.718z M239.96,440.013c-52.369-0.012-102.806-19.778-141.239-55.351l28.72-28.72    c8.775-8.807,9.372-22.857,1.376-32.376c-43.748-53.159-43.748-129.849,0-183.008c7.994-9.521,7.393-23.571-1.384-32.376    l-28.72-28.72C183.014,1.427,314.615,6.506,392.65,90.808c35.579,38.436,55.348,88.879,55.358,141.254    C447.982,346.937,354.835,440.04,239.96,440.013z" data-original="#000000" class="active-path" data-old_color="#000000" fill="#FF2121"/>
	</g>
</g><g>
	<g>
		<rect x="339.517" y="116.57" transform="matrix(0.7069 -0.7074 0.7074 0.7069 13.7552 282.3328)" width="16" height="16" data-original="#000000" class="active-path" data-old_color="#000000" fill="#FF2121"/>
	</g>
</g><g>
	<g>
		<rect x="373.432" y="105.262" transform="matrix(0.7071 -0.7071 0.7071 0.7071 31.6301 302.8867)" width="16" height="16" data-original="#000000" class="active-path" data-old_color="#000000" fill="#FF2121"/>
	</g>
</g><g>
	<g>
		<rect x="339.545" y="331.546" transform="matrix(0.7074 -0.7069 0.7069 0.7074 -138.3032 345.0331)" width="16" height="16" data-original="#000000" class="active-path" data-old_color="#000000" fill="#FF2121"/>
	</g>
</g><g>
	<g>
		<rect x="350.833" y="365.443" transform="matrix(0.7071 -0.7071 0.7071 0.7071 -158.9644 363.1136)" width="16" height="16" data-original="#000000" class="active-path" data-old_color="#000000" fill="#FF2121"/>
	</g>
</g><g>
	<g>
		<rect x="384.009" y="224.062" width="16" height="16" data-original="#000000" class="active-path" data-old_color="#000000" fill="#FF2121"/>
	</g>
</g><g>
	<g>
		<rect x="416.009" y="240.062" width="16" height="16" data-original="#000000" class="active-path" data-old_color="#000000" fill="#FF2121"/>
	</g>
</g><g>
	<g>
		<rect x="232.009" y="72.062" width="16" height="16" data-original="#000000" class="active-path" data-old_color="#000000" fill="#FF2121"/>
	</g>
</g><g>
	<g>
		<rect x="232.009" y="376.062" width="16" height="16" data-original="#000000" class="active-path" data-old_color="#000000" fill="#FF2121"/>
	</g>
</g><g>
	<g>
		<rect x="248.009" y="40.062" width="16" height="16" data-original="#000000" class="active-path" data-old_color="#000000" fill="#FF2121"/>
	</g>
</g><g>
	<g>
		<rect x="216.009" y="408.062" width="16" height="16" data-original="#000000" class="active-path" data-old_color="#000000" fill="#FF2121"/>
	</g>
</g><g>
	<g>
		<path d="M240.009,200.062c-17.673,0-32,14.327-32,32s14.327,32,32,32c17.673,0,32-14.327,32-32S257.682,200.062,240.009,200.062z     M240.009,248.062c-8.837,0-16-7.163-16-16s7.163-16,16-16s16,7.163,16,16S248.845,248.062,240.009,248.062z" data-original="#000000" class="active-path" data-old_color="#000000" fill="#FF2121"/>
	</g>
</g><g>
	<g>
		<path d="M77.769,145.742l-14.112-7.552c-31.531,58.61-31.531,129.134,0,187.744l14.112-7.552    C48.755,264.493,48.755,199.632,77.769,145.742z" data-original="#000000" class="active-path" data-old_color="#000000" fill="#FF2121"/>
	</g>
</g><g>
	<g>
		<rect x="84.928" y="122.238" transform="matrix(0.7071 -0.7071 0.7071 0.7071 -64.8746 103.8556)" width="16" height="16" data-original="#000000" class="active-path" data-old_color="#000000" fill="#FF2121"/>
	</g>
</g><g>
	<g>
		<rect x="84.929" y="325.888" transform="matrix(0.7071 -0.7071 0.7071 0.7071 -208.8761 163.5043)" width="16" height="16" data-original="#000000" class="active-path" data-old_color="#000000" fill="#FF2121"/>
	</g>
</g></g> </svg>
