<?xml version="1.0"?>
<svg xmlns="http://www.w3.org/2000/svg" xmlns:xlink="http://www.w3.org/1999/xlink" version="1.1" id="Capa_1" x="0px" y="0px" viewBox="0 0 480.04 480.04" style="enable-background:new 0 0 480.04 480.04;" xml:space="preserve" width="512px" height="512px"><g><g>
	<g>
		<rect x="272" y="56.02" width="16" height="16" data-original="#000000" class="active-path" data-old_color="#000000" fill="#FF2121"/>
	</g>
</g><g>
	<g>
		<rect x="48" y="264.02" width="16" height="16" data-original="#000000" class="active-path" data-old_color="#000000" fill="#FF2121"/>
	</g>
</g><g>
	<g>
		<rect x="144" y="344.02" width="16" height="16" data-original="#000000" class="active-path" data-old_color="#000000" fill="#FF2121"/>
	</g>
</g><g>
	<g>
		<path d="M362.661,178.5c-8.79-1.653-17.716-2.483-26.661-2.48c-2.664,0-5.264,0.256-7.896,0.4c-2.356-3.195-5.17-6.026-8.352-8.4    c10.184-7.487,16.213-19.36,16.248-32v-80c-0.026-22.08-17.92-39.974-40-40H40c-22.08,0.026-39.974,17.92-40,40v80    c0.035,12.64,6.064,24.513,16.248,32C6.064,175.507,0.035,187.38,0,200.02v80c0.035,12.64,6.064,24.513,16.248,32    C6.064,319.507,0.035,331.38,0,344.02v80c0.026,22.08,17.92,39.974,40,40h256c4.598-0.063,9.149-0.929,13.448-2.56    c78.137,14.694,153.392-36.737,168.086-114.874C492.229,268.449,440.798,193.194,362.661,178.5z M16,136.02h288v-16H16v-48h240    v-16H16c0-13.255,10.745-24,24-24h256c13.255,0,24,10.745,24,24h-16v16h16v64c0,13.255-10.745,24-24,24H40    C26.745,160.02,16,149.275,16,136.02z M16,280.02h16v-16H16v-64c0-13.255,10.745-24,24-24h256c3.878,0.041,7.685,1.045,11.08,2.92    c-18.26,3.748-35.612,11.028-51.08,21.432v-0.352H32v16h204.672c-14.265,13.562-25.609,29.896-33.336,48H80v16h117.768    c-2.285,7.848-3.891,15.877-4.8,24H40C26.745,304.02,16,293.275,16,280.02z M16,360.02h112v-16H16c0-13.255,10.745-24,24-24h152    c0.05,8.047,0.775,16.075,2.168,24H176v16h21.768c5.061,17.405,13.376,33.693,24.504,48H16V360.02z M40,448.02    c-13.255,0-24-10.745-24-24h220.672c10.013,9.569,21.347,17.651,33.656,24H40z M463.592,328.02    c-1.04,17.004-5.491,33.624-13.088,48.872l-13.504-7.8l-8,13.856l13.6,7.84c-9.466,14.18-21.644,26.347-35.832,35.8l-7.84-13.6    l-13.856,8l7.8,13.512c-15.246,7.605-31.867,12.064-48.872,13.112V432.02h-16v15.592c-17.004-1.04-33.624-5.491-48.872-13.088    l7.8-13.512l-13.856-8l-7.84,13.6c-14.177-9.457-26.343-21.623-35.8-35.8l13.6-7.84l-8-13.856l-13.504,7.8    c-7.611-15.253-12.073-31.882-13.12-48.896H224v-16h-15.592c1.04-17.004,5.491-33.624,13.088-48.872l13.504,7.8l8-13.856    l-13.6-7.84c9.457-14.177,21.623-26.343,35.8-35.8l7.84,13.6l13.856-8l-7.8-13.512c15.256-7.609,31.888-12.069,48.904-13.112    v15.592h16v-15.592c17.004,1.04,33.624,5.491,48.872,13.088l-7.8,13.512l13.856,8l7.84-13.6c14.177,9.457,26.343,21.623,35.8,35.8    l-13.6,7.84l8,13.856l13.504-7.8c7.611,15.253,12.073,31.882,13.12,48.896H448v16H463.592z" data-original="#000000" class="active-path" data-old_color="#000000" fill="#FF2121"/>
	</g>
</g><g>
	<g>
		<path d="M336,224.02c-53.019,0-96,42.981-96,96s42.981,96,96,96s96-42.981,96-96C431.943,267.025,388.996,224.077,336,224.02z     M344,240.428c22.788,2.323,43.485,14.31,56.84,32.92h-0.04l-42,24.272c-4.077-4.108-9.192-7.033-14.8-8.464V240.428z     M328,240.428v48.728c-5.608,1.431-10.723,4.356-14.8,8.464l-42-24.272C284.546,254.747,305.226,242.762,328,240.428z     M263.128,352.82c-4.684-10.301-7.114-21.484-7.128-32.8c0.014-11.316,2.444-22.499,7.128-32.8l42.16,24.344    c-1.717,5.528-1.717,11.448,0,16.976L263.128,352.82z M328,399.612c-22.774-2.333-43.454-14.319-56.8-32.92l42-24.272    c4.077,4.108,9.192,7.033,14.8,8.464V399.612z M320,320.02c0-8.837,7.163-16,16-16s16,7.163,16,16s-7.163,16-16,16    S320,328.857,320,320.02z M344,399.612v-48.728c5.608-1.431,10.723-4.356,14.8-8.464l42.04,24.272    C387.485,385.303,366.788,397.29,344,399.612z M366.712,328.476c1.717-5.528,1.717-11.448,0-16.976l42.16-24.344    c4.693,10.321,7.123,21.526,7.128,32.864c-0.014,11.316-2.444,22.499-7.128,32.8L366.712,328.476z" data-original="#000000" class="active-path" data-old_color="#000000" fill="#FF2121"/>
	</g>
</g></g> </svg>
